<?xml version="1.0" encoding="UTF-8"?>
<svg xmlns="http://www.w3.org/2000/svg" xmlns:xlink="http://www.w3.org/1999/xlink" width="12px" height="12px" viewBox="0 0 12 12" version="1.1">
<g id="surface1">
<path style=" stroke:none;fill-rule:nonzero;fill:rgb(93.333334%,30.19608%,23.529412%);fill-opacity:1;" d="M 6.609375 0 C 6.671875 0 6.734375 0 6.796875 0 C 6.929688 0.382812 6.996094 0.773438 7.0625 1.171875 C 7.089844 1.339844 7.125 1.507812 7.15625 1.671875 C 7.171875 1.789062 7.175781 1.898438 7.171875 2.015625 C 7.21875 2 7.265625 1.984375 7.3125 1.96875 C 7.769531 1.9375 8.183594 1.992188 8.625 2.109375 C 8.664062 2.117188 8.703125 2.128906 8.742188 2.136719 C 9.152344 2.257812 9.535156 2.519531 9.84375 2.8125 C 9.84375 2.84375 9.84375 2.875 9.84375 2.90625 C 9.871094 2.917969 9.894531 2.925781 9.921875 2.9375 C 10.066406 3.019531 10.160156 3.136719 10.265625 3.265625 C 10.296875 3.304688 10.296875 3.304688 10.328125 3.34375 C 10.6875 3.789062 10.6875 3.789062 10.6875 3.984375 C 10.71875 3.984375 10.75 3.984375 10.78125 3.984375 C 11.195312 4.796875 11.195312 4.796875 11.34375 5.203125 C 11.355469 5.234375 11.367188 5.269531 11.382812 5.300781 C 11.570312 5.8125 11.722656 6.304688 11.8125 6.84375 C 11.824219 6.910156 11.835938 6.976562 11.851562 7.039062 C 11.9375 7.488281 12.007812 7.921875 12.011719 8.375 C 12.011719 8.414062 12.011719 8.453125 12.011719 8.492188 C 12.011719 8.570312 12.011719 8.652344 12.015625 8.730469 C 12.015625 8.8125 12.015625 8.890625 12.015625 8.972656 C 12.03125 9.78125 11.980469 10.839844 11.386719 11.453125 C 10.726562 12.023438 9.710938 12.019531 8.890625 12.015625 C 8.847656 12.015625 8.804688 12.015625 8.757812 12.015625 C 8.144531 12.015625 7.554688 11.992188 6.957031 11.839844 C 6.835938 11.8125 6.714844 11.785156 6.59375 11.757812 C 5.503906 11.523438 4.394531 11.109375 3.515625 10.40625 C 3.480469 10.378906 3.480469 10.378906 3.445312 10.351562 C 2.921875 9.9375 2.550781 9.503906 2.25 8.90625 C 2.234375 8.878906 2.21875 8.847656 2.199219 8.820312 C 2.136719 8.675781 2.109375 8.527344 2.082031 8.375 C 2.074219 8.34375 2.066406 8.3125 2.0625 8.277344 C 2.003906 7.9375 2.003906 7.609375 2.015625 7.265625 C 1.984375 7.257812 1.953125 7.253906 1.921875 7.246094 C 1.277344 7.121094 0.636719 6.988281 0 6.84375 C 0.015625 6.75 0.03125 6.65625 0.046875 6.5625 C 0.09375 6.546875 0.140625 6.53125 0.1875 6.515625 C 0.21875 6.4375 0.25 6.359375 0.28125 6.28125 C 0.34375 6.191406 0.40625 6.101562 0.476562 6.015625 C 0.511719 5.964844 0.550781 5.917969 0.589844 5.867188 C 0.625 5.816406 0.664062 5.769531 0.703125 5.71875 C 0.738281 5.675781 0.769531 5.632812 0.804688 5.585938 C 0.964844 5.382812 1.125 5.191406 1.3125 5.015625 C 1.359375 4.96875 1.359375 4.96875 1.40625 4.921875 C 1.40625 4.703125 1.273438 4.570312 1.144531 4.40625 C 1.0625 4.289062 1.019531 4.171875 0.984375 4.03125 C 0.953125 4.03125 0.921875 4.03125 0.890625 4.03125 C 0.816406 3.917969 0.746094 3.804688 0.675781 3.6875 C 0.648438 3.640625 0.648438 3.640625 0.617188 3.589844 C 0.539062 3.457031 0.472656 3.335938 0.421875 3.1875 C 1.25 2.992188 2.054688 2.878906 2.90625 2.90625 C 2.902344 2.847656 2.902344 2.792969 2.898438 2.730469 C 2.878906 1.953125 2.953125 1.167969 3.1875 0.421875 C 3.347656 0.5 3.5 0.585938 3.652344 0.675781 C 3.699219 0.703125 3.75 0.730469 3.796875 0.757812 C 3.933594 0.839844 4.050781 0.929688 4.171875 1.03125 C 4.25 1.078125 4.328125 1.125 4.40625 1.171875 C 4.488281 1.234375 4.570312 1.300781 4.652344 1.363281 C 4.734375 1.414062 4.734375 1.414062 4.828125 1.390625 C 4.859375 1.382812 4.890625 1.371094 4.921875 1.359375 C 4.96875 1.34375 5.015625 1.328125 5.0625 1.3125 C 5.074219 1.285156 5.089844 1.253906 5.101562 1.226562 C 5.171875 1.09375 5.261719 1.058594 5.390625 0.984375 C 5.429688 0.945312 5.46875 0.902344 5.511719 0.859375 C 5.628906 0.746094 5.664062 0.738281 5.8125 0.703125 C 5.824219 0.675781 5.835938 0.648438 5.84375 0.621094 C 5.933594 0.46875 6.066406 0.390625 6.210938 0.296875 C 6.421875 0.164062 6.421875 0.164062 6.609375 0 Z M 6.609375 0 "/>
<path style=" stroke:none;fill-rule:nonzero;fill:rgb(39.215687%,53.725493%,18.431373%);fill-opacity:1;" d="M 6.609375 0 C 6.671875 0 6.734375 0 6.796875 0 C 6.929688 0.382812 6.996094 0.773438 7.0625 1.171875 C 7.089844 1.339844 7.125 1.507812 7.15625 1.671875 C 7.171875 1.789062 7.175781 1.898438 7.171875 2.015625 C 7.128906 2.027344 7.082031 2.039062 7.035156 2.054688 C 5.984375 2.355469 5.058594 2.746094 4.246094 3.503906 C 4.171875 3.5625 4.171875 3.5625 4.078125 3.5625 C 4.078125 3.59375 4.078125 3.625 4.078125 3.65625 C 4.015625 3.714844 4.015625 3.714844 3.921875 3.789062 C 3.414062 4.222656 3.050781 4.769531 2.71875 5.34375 C 2.691406 5.390625 2.664062 5.4375 2.636719 5.484375 C 2.484375 5.765625 2.378906 6.058594 2.28125 6.363281 C 2.269531 6.402344 2.257812 6.4375 2.246094 6.476562 C 2.175781 6.707031 2.136719 6.929688 2.109375 7.171875 C 2.0625 7.21875 2.0625 7.21875 1.964844 7.21875 C 1.632812 7.195312 1.320312 7.136719 1 7.054688 C 0.75 6.996094 0.503906 6.945312 0.25 6.910156 C 0.140625 6.890625 0.140625 6.890625 0 6.84375 C 0.015625 6.75 0.03125 6.65625 0.046875 6.5625 C 0.09375 6.546875 0.140625 6.53125 0.1875 6.515625 C 0.21875 6.4375 0.25 6.359375 0.28125 6.28125 C 0.34375 6.191406 0.40625 6.101562 0.476562 6.015625 C 0.511719 5.964844 0.550781 5.917969 0.589844 5.867188 C 0.625 5.816406 0.664062 5.769531 0.703125 5.71875 C 0.738281 5.675781 0.769531 5.632812 0.804688 5.585938 C 0.964844 5.382812 1.125 5.191406 1.3125 5.015625 C 1.359375 4.96875 1.359375 4.96875 1.40625 4.921875 C 1.40625 4.703125 1.273438 4.570312 1.144531 4.40625 C 1.0625 4.289062 1.019531 4.171875 0.984375 4.03125 C 0.953125 4.03125 0.921875 4.03125 0.890625 4.03125 C 0.816406 3.917969 0.746094 3.804688 0.675781 3.6875 C 0.648438 3.640625 0.648438 3.640625 0.617188 3.589844 C 0.539062 3.457031 0.472656 3.335938 0.421875 3.1875 C 1.25 2.992188 2.054688 2.878906 2.90625 2.90625 C 2.902344 2.847656 2.902344 2.792969 2.898438 2.730469 C 2.878906 1.953125 2.953125 1.167969 3.1875 0.421875 C 3.347656 0.5 3.5 0.585938 3.652344 0.675781 C 3.699219 0.703125 3.75 0.730469 3.796875 0.757812 C 3.933594 0.839844 4.050781 0.929688 4.171875 1.03125 C 4.25 1.078125 4.328125 1.125 4.40625 1.171875 C 4.488281 1.234375 4.570312 1.300781 4.652344 1.363281 C 4.734375 1.414062 4.734375 1.414062 4.828125 1.390625 C 4.859375 1.382812 4.890625 1.371094 4.921875 1.359375 C 4.96875 1.34375 5.015625 1.328125 5.0625 1.3125 C 5.074219 1.285156 5.089844 1.253906 5.101562 1.226562 C 5.171875 1.09375 5.261719 1.058594 5.390625 0.984375 C 5.429688 0.945312 5.46875 0.902344 5.511719 0.859375 C 5.628906 0.746094 5.664062 0.738281 5.8125 0.703125 C 5.824219 0.675781 5.835938 0.648438 5.84375 0.621094 C 5.933594 0.46875 6.066406 0.390625 6.210938 0.296875 C 6.421875 0.164062 6.421875 0.164062 6.609375 0 Z M 6.609375 0 "/>
<path style=" stroke:none;fill-rule:nonzero;fill:rgb(39.215687%,53.725493%,18.431373%);fill-opacity:1;" d="M 3.375 4.359375 C 3.359375 4.378906 3.34375 4.398438 3.328125 4.421875 C 2.871094 5.011719 2.511719 5.652344 2.28125 6.363281 C 2.269531 6.402344 2.257812 6.4375 2.246094 6.476562 C 2.175781 6.707031 2.136719 6.929688 2.109375 7.171875 C 2.0625 7.21875 2.0625 7.21875 1.960938 7.21875 C 1.632812 7.195312 1.320312 7.136719 1 7.054688 C 0.75 6.996094 0.503906 6.945312 0.25 6.910156 C 0.140625 6.890625 0.140625 6.890625 0 6.84375 C 0.0234375 6.703125 0.0234375 6.703125 0.046875 6.5625 C 0.117188 6.539062 0.117188 6.539062 0.1875 6.515625 C 0.21875 6.4375 0.25 6.359375 0.28125 6.28125 C 0.34375 6.191406 0.40625 6.101562 0.476562 6.015625 C 0.511719 5.964844 0.550781 5.917969 0.589844 5.867188 C 0.625 5.816406 0.664062 5.769531 0.703125 5.71875 C 0.738281 5.675781 0.769531 5.632812 0.804688 5.585938 C 0.964844 5.382812 1.128906 5.195312 1.3125 5.015625 C 1.347656 4.964844 1.347656 4.964844 1.382812 4.914062 C 1.46875 4.804688 1.566406 4.757812 1.6875 4.6875 C 1.738281 4.640625 1.789062 4.597656 1.839844 4.550781 C 2.320312 4.132812 2.800781 4.15625 3.375 4.359375 Z M 3.375 4.359375 "/>
<path style=" stroke:none;fill-rule:nonzero;fill:rgb(54.901963%,77.254903%,23.921569%);fill-opacity:1;" d="M 4.078125 3.234375 C 4.203125 3.367188 4.203125 3.367188 4.265625 3.46875 C 4.203125 3.5 4.140625 3.53125 4.078125 3.5625 C 4.078125 3.59375 4.078125 3.625 4.078125 3.65625 C 4.007812 3.722656 4.007812 3.722656 3.910156 3.804688 C 3.710938 3.972656 3.542969 4.160156 3.375 4.359375 C 3.347656 4.351562 3.316406 4.347656 3.289062 4.339844 C 2.792969 4.230469 2.460938 4.21875 2 4.464844 C 1.839844 4.570312 1.722656 4.6875 1.59375 4.828125 C 1.546875 4.828125 1.5 4.828125 1.453125 4.828125 C 1.359375 4.726562 1.359375 4.726562 1.261719 4.585938 C 1.230469 4.542969 1.199219 4.5 1.164062 4.453125 C 1.078125 4.3125 1.027344 4.1875 0.984375 4.03125 C 0.953125 4.03125 0.921875 4.03125 0.890625 4.03125 C 0.816406 3.917969 0.746094 3.804688 0.675781 3.6875 C 0.65625 3.65625 0.636719 3.625 0.617188 3.589844 C 0.539062 3.457031 0.472656 3.335938 0.421875 3.1875 C 3.113281 2.558594 3.113281 2.558594 4.078125 3.234375 Z M 4.078125 3.234375 "/>
<path style=" stroke:none;fill-rule:nonzero;fill:rgb(54.901963%,77.254903%,23.921569%);fill-opacity:1;" d="M 6.609375 0 C 6.671875 0 6.734375 0 6.796875 0 C 6.929688 0.382812 6.996094 0.773438 7.0625 1.171875 C 7.089844 1.339844 7.125 1.507812 7.15625 1.671875 C 7.171875 1.789062 7.175781 1.898438 7.171875 2.015625 C 7.128906 2.027344 7.085938 2.039062 7.039062 2.050781 C 6.757812 2.132812 6.480469 2.230469 6.207031 2.324219 C 6.164062 2.339844 6.121094 2.355469 6.078125 2.367188 C 6.039062 2.382812 6 2.394531 5.960938 2.410156 C 5.859375 2.4375 5.859375 2.4375 5.71875 2.4375 C 5.652344 2.371094 5.652344 2.371094 5.582031 2.28125 C 5.359375 2.015625 5.09375 1.808594 4.828125 1.59375 C 4.847656 1.503906 4.847656 1.503906 4.875 1.40625 C 4.9375 1.375 5 1.34375 5.0625 1.3125 C 5.078125 1.28125 5.089844 1.253906 5.105469 1.222656 C 5.175781 1.089844 5.265625 1.058594 5.390625 0.984375 C 5.429688 0.945312 5.46875 0.902344 5.511719 0.859375 C 5.628906 0.746094 5.664062 0.738281 5.8125 0.703125 C 5.824219 0.675781 5.835938 0.648438 5.84375 0.621094 C 5.933594 0.46875 6.066406 0.390625 6.210938 0.296875 C 6.421875 0.164062 6.421875 0.164062 6.609375 0 Z M 6.609375 0 "/>
<path style=" stroke:none;fill-rule:nonzero;fill:rgb(99.607843%,90.588236%,90.588236%);fill-opacity:1;" d="M 7.882812 10.484375 C 8.117188 10.488281 8.246094 10.550781 8.4375 10.6875 C 8.539062 10.839844 8.558594 10.886719 8.53125 11.0625 C 8.421875 11.1875 8.351562 11.203125 8.1875 11.21875 C 7.941406 11.195312 7.757812 11.144531 7.59375 10.953125 C 7.539062 10.804688 7.542969 10.738281 7.59375 10.59375 C 7.703125 10.484375 7.734375 10.484375 7.882812 10.484375 Z M 7.882812 10.484375 "/>
<path style=" stroke:none;fill-rule:nonzero;fill:rgb(99.607843%,89.803922%,89.411765%);fill-opacity:1;" d="M 8.578125 8.484375 C 8.578125 8.515625 8.578125 8.546875 8.578125 8.578125 C 8.605469 8.582031 8.632812 8.585938 8.660156 8.589844 C 8.804688 8.636719 8.863281 8.691406 8.953125 8.8125 C 8.972656 8.976562 8.984375 9.085938 8.902344 9.230469 C 8.757812 9.3125 8.648438 9.300781 8.484375 9.28125 C 8.28125 9.175781 8.15625 9.070312 8.0625 8.859375 C 8.042969 8.726562 8.042969 8.65625 8.109375 8.539062 C 8.261719 8.449219 8.402344 8.476562 8.578125 8.484375 Z M 8.578125 8.484375 "/>
<path style=" stroke:none;fill-rule:nonzero;fill:rgb(99.607843%,90.588236%,90.196079%);fill-opacity:1;" d="M 3.925781 6.546875 C 4.175781 6.550781 4.320312 6.664062 4.492188 6.835938 C 4.566406 6.976562 4.570312 7.066406 4.546875 7.21875 C 4.445312 7.339844 4.378906 7.355469 4.222656 7.375 C 4.054688 7.355469 3.976562 7.328125 3.84375 7.21875 C 3.734375 7.074219 3.664062 6.9375 3.640625 6.757812 C 3.671875 6.570312 3.742188 6.5625 3.925781 6.546875 Z M 3.925781 6.546875 "/>
<path style=" stroke:none;fill-rule:nonzero;fill:rgb(99.607843%,92.156863%,91.764706%);fill-opacity:1;" d="M 10.609375 7.355469 C 10.78125 7.40625 10.867188 7.453125 10.972656 7.597656 C 11.050781 7.765625 11.046875 7.929688 11.015625 8.109375 C 10.960938 8.230469 10.960938 8.230469 10.875 8.296875 C 10.742188 8.328125 10.742188 8.328125 10.59375 8.296875 C 10.425781 8.179688 10.328125 8.050781 10.289062 7.847656 C 10.28125 7.542969 10.28125 7.542969 10.375 7.414062 C 10.453125 7.359375 10.453125 7.359375 10.609375 7.355469 Z M 10.609375 7.355469 "/>
<path style=" stroke:none;fill-rule:nonzero;fill:rgb(99.607843%,90.196079%,89.803922%);fill-opacity:1;" d="M 6.46875 7.078125 C 6.46875 7.109375 6.46875 7.140625 6.46875 7.171875 C 6.503906 7.183594 6.542969 7.195312 6.578125 7.210938 C 6.703125 7.265625 6.703125 7.265625 6.796875 7.40625 C 6.8125 7.535156 6.804688 7.648438 6.796875 7.78125 C 6.6875 7.890625 6.65625 7.890625 6.503906 7.898438 C 6.335938 7.894531 6.242188 7.871094 6.117188 7.757812 C 5.96875 7.585938 5.949219 7.441406 5.953125 7.21875 C 6.050781 7.011719 6.273438 7.070312 6.46875 7.078125 Z M 6.46875 7.078125 "/>
<path style=" stroke:none;fill-rule:nonzero;fill:rgb(99.607843%,90.588236%,90.588236%);fill-opacity:1;" d="M 10.546875 9.84375 C 10.707031 9.941406 10.816406 10.0625 10.921875 10.21875 C 10.949219 10.503906 10.949219 10.503906 10.867188 10.636719 C 10.730469 10.714844 10.65625 10.714844 10.5 10.6875 C 10.308594 10.566406 10.167969 10.429688 10.078125 10.21875 C 10.0625 10.085938 10.058594 10.015625 10.128906 9.898438 C 10.273438 9.808594 10.378906 9.820312 10.546875 9.84375 Z M 10.546875 9.84375 "/>
<path style=" stroke:none;fill-rule:nonzero;fill:rgb(99.607843%,90.196079%,89.803922%);fill-opacity:1;" d="M 3.558594 8.851562 C 3.65625 8.851562 3.75 8.855469 3.84375 8.859375 C 3.84375 8.890625 3.84375 8.921875 3.84375 8.953125 C 3.871094 8.957031 3.898438 8.960938 3.925781 8.964844 C 4.070312 9.011719 4.128906 9.0625 4.21875 9.1875 C 4.242188 9.324219 4.234375 9.421875 4.21875 9.5625 C 4.039062 9.679688 3.960938 9.683594 3.75 9.65625 C 3.597656 9.558594 3.457031 9.445312 3.375 9.28125 C 3.367188 9.117188 3.367188 9.117188 3.375 8.953125 C 3.46875 8.859375 3.46875 8.859375 3.558594 8.851562 Z M 3.558594 8.851562 "/>
<path style=" stroke:none;fill-rule:nonzero;fill:rgb(99.607843%,91.37255%,90.980393%);fill-opacity:1;" d="M 4.6875 4.40625 C 4.859375 4.5 4.953125 4.570312 5.0625 4.734375 C 5.078125 4.863281 5.070312 4.976562 5.0625 5.109375 C 4.96875 5.203125 4.96875 5.203125 4.792969 5.222656 C 4.5625 5.21875 4.46875 5.132812 4.3125 4.96875 C 4.214844 4.828125 4.195312 4.714844 4.21875 4.546875 C 4.328125 4.359375 4.488281 4.382812 4.6875 4.40625 Z M 4.6875 4.40625 "/>
<path style=" stroke:none;fill-rule:nonzero;fill:rgb(99.607843%,90.588236%,90.196079%);fill-opacity:1;" d="M 6.140625 9.515625 C 6.140625 9.546875 6.140625 9.578125 6.140625 9.609375 C 6.195312 9.625 6.195312 9.625 6.25 9.644531 C 6.394531 9.710938 6.445312 9.75 6.515625 9.890625 C 6.53125 10.0625 6.53125 10.0625 6.515625 10.21875 C 6.339844 10.335938 6.253906 10.332031 6.046875 10.3125 C 5.878906 10.234375 5.757812 10.152344 5.671875 9.984375 C 5.652344 9.851562 5.660156 9.746094 5.671875 9.609375 C 5.84375 9.496094 5.941406 9.507812 6.140625 9.515625 Z M 6.140625 9.515625 "/>
<path style=" stroke:none;fill-rule:nonzero;fill:rgb(99.607843%,91.37255%,90.980393%);fill-opacity:1;" d="M 6.5625 4.546875 C 6.863281 4.507812 6.863281 4.507812 7.019531 4.59375 C 7.152344 4.699219 7.269531 4.804688 7.3125 4.96875 C 7.304688 5.140625 7.304688 5.140625 7.265625 5.296875 C 7.125 5.390625 7.125 5.390625 6.96875 5.394531 C 6.738281 5.328125 6.636719 5.21875 6.515625 5.015625 C 6.46875 4.839844 6.46875 4.839844 6.46875 4.6875 C 6.5 4.640625 6.53125 4.59375 6.5625 4.546875 Z M 6.5625 4.546875 "/>
<path style=" stroke:none;fill-rule:nonzero;fill:rgb(99.607843%,91.764706%,91.37255%);fill-opacity:1;" d="M 9.71875 4.734375 C 9.917969 4.789062 9.996094 4.859375 10.125 5.015625 C 10.199219 5.164062 10.191406 5.324219 10.171875 5.484375 C 10.140625 5.53125 10.109375 5.578125 10.078125 5.625 C 9.925781 5.65625 9.925781 5.65625 9.75 5.625 C 9.589844 5.511719 9.492188 5.375 9.4375 5.1875 C 9.394531 4.914062 9.394531 4.914062 9.484375 4.792969 C 9.5625 4.734375 9.5625 4.734375 9.71875 4.734375 Z M 9.71875 4.734375 "/>
<path style=" stroke:none;fill-rule:nonzero;fill:rgb(99.607843%,90.980393%,90.588236%);fill-opacity:1;" d="M 8.671875 6.28125 C 8.808594 6.367188 8.925781 6.460938 9 6.609375 C 9.007812 6.695312 9.007812 6.695312 9.007812 6.796875 C 9.007812 6.828125 9.011719 6.863281 9.011719 6.898438 C 9 6.984375 9 6.984375 8.90625 7.078125 C 8.671875 7.113281 8.671875 7.113281 8.53125 7.078125 C 8.386719 6.960938 8.285156 6.820312 8.203125 6.65625 C 8.191406 6.511719 8.183594 6.414062 8.253906 6.285156 C 8.40625 6.199219 8.507812 6.238281 8.671875 6.28125 Z M 8.671875 6.28125 "/>
<path style=" stroke:none;fill-rule:nonzero;fill:rgb(99.607843%,90.588236%,90.588236%);fill-opacity:1;" d="M 7.71875 2.738281 C 7.941406 2.746094 8.070312 2.847656 8.226562 3.003906 C 8.296875 3.09375 8.296875 3.09375 8.332031 3.242188 C 8.289062 3.40625 8.253906 3.46875 8.109375 3.5625 C 7.90625 3.566406 7.777344 3.527344 7.625 3.402344 C 7.472656 3.253906 7.457031 3.230469 7.445312 3.023438 C 7.457031 2.796875 7.492188 2.773438 7.71875 2.738281 Z M 7.71875 2.738281 "/>
<path style=" stroke:none;fill-rule:nonzero;fill:rgb(98.039216%,74.901962%,72.941178%);fill-opacity:1;" d="M 10.6875 7.359375 C 10.464844 7.546875 10.464844 7.546875 10.359375 7.546875 C 10.359375 7.6875 10.359375 7.824219 10.359375 7.96875 C 10.34375 7.96875 10.328125 7.96875 10.3125 7.96875 C 10.308594 7.894531 10.304688 7.820312 10.304688 7.742188 C 10.300781 7.703125 10.300781 7.660156 10.296875 7.617188 C 10.3125 7.5 10.3125 7.5 10.375 7.414062 C 10.480469 7.339844 10.558594 7.347656 10.6875 7.359375 Z M 10.6875 7.359375 "/>
</g>
</svg>
